<?xml version="1.0" encoding="utf-8"?>
<!-- Generator: Adobe Illustrator 25.3.1, SVG Export Plug-In . SVG Version: 6.00 Build 0)  -->
<svg version="1.1" id="Layer_1" xmlns="http://www.w3.org/2000/svg" xmlns:xlink="http://www.w3.org/1999/xlink" x="0px" y="0px"
	 viewBox="0 0 1920 1080" style="enable-background:new 0 0 1920 1080;" xml:space="preserve">
<style type="text/css">
	.st0{display:none;fill:#FFFFFF;}
	.st1{font-family:'Baloo-Regular';}
	.st2{font-size:56px;}
	.st3{fill:#202020;}
	.st4{fill:#19191A;stroke:#19191A;stroke-miterlimit:10;}
	.st5{font-family:'Cookie-Regular';}
	.st6{font-size:1146.5674px;}
	.st7{font-family:'HarlowSolid';}
	.st8{font-size:290.3308px;}
</style>
<text transform="matrix(0.9946 -0.1039 0.1039 0.9946 1303.8164 467.0082)" class="st0 st1 st2">wroteit</text>
<rect x="975.98" y="-160.96" style="fill:none;" width="2.04" height="0"/>
<g>
	<g>
		<g>
			<g>
				<path class="st3" d="M906.53,833.32c-4.42,1.15-2.74,1.17-3.39,1.43C910.58,832.65,906.3,833.25,906.53,833.32z"/>
				<polygon class="st3" points="937.86,773.6 938.36,774.78 935.61,764.63 				"/>
				<path class="st3" d="M924.65,708.28c-0.18,3.26,1.12,9.16,2.63,15.72c1.5,6.56,3.24,13.79,4.2,19.65l0.11,1.98l2.03,5.04
					C930.66,736.55,926.21,718.34,924.65,708.28z"/>
				<path class="st3" d="M922.15,672.45c-0.41,2.34-1.92-7.45,1.12,8.24c-0.05-0.81-0.04-1.05-0.06-1.52
					C922.97,677.74,922.63,675.79,922.15,672.45z"/>
				<path class="st3" d="M923.21,679.16C924.4,686.08,923.08,674.49,923.21,679.16L923.21,679.16z"/>
				<path class="st3" d="M917.56,647.22l2.22,8.97c0.21-2.02-0.89-10.21-0.05-7.26C917.91,639.63,917.59,641.69,917.56,647.22z"/>
				<path class="st3" d="M914.39,638.95l1.15,4.65C915.63,642.72,915.51,641.45,914.39,638.95z"/>
				<path class="st3" d="M917.92,653.47l-2.39-9.88c-0.17,1.41-0.89,1.71,1.04,4.55C915.74,647.48,916.76,649.31,917.92,653.47z"/>
				<path class="st3" d="M918.53,659.23c0.39,5.23,1.3,11.88-1.06,2.9C920.9,679.48,921.74,676.63,918.53,659.23z"/>
				<path class="st3" d="M922.34,705.3l0.97,6.88l1.74,5.76C924.17,715.07,922.74,704.78,922.34,705.3z"/>
				<path class="st3" d="M910.49,589.81c-0.78-0.42-1.39,3.49-2.14,4.36l1.81,6.59C910.07,597.19,909.52,590.5,910.49,589.81z"/>
				<path class="st3" d="M908.34,594.18l-2.79-9.85C906.86,593.39,907.7,594.91,908.34,594.18z"/>
				<path class="st3" d="M911.35,637.93c1.65,5.36,3.27,10.73,4.81,16.12c-1.74-6.45-3.56-12.88-5.43-19.3L911.35,637.93z"/>
				<path class="st3" d="M905.26,551.01c0.91,1.78,1.8,3.56,2.67,5.34c-1.39-3.22-2.82-6.42-4.29-9.62L905.26,551.01z"/>
				<path class="st3" d="M901.38,525.37c2.34,3.87,2.29-6.52,3.97-2.25c-1.16-6.94-3.49-12.57-5.72-17.62
					C901.24,511.02,901.77,517.17,901.38,525.37z"/>
				<path class="st3" d="M896.18,496.96c0.88,2.74,2.14,5.51,3.45,8.53C898.78,502.56,897.73,499.72,896.18,496.96z"/>
				<path class="st3" d="M903.19,567.03c0.35-0.89,1.35-2.66,1.06-8.47l-1.65,4.48C902.78,564.26,902.99,565.64,903.19,567.03z"/>
				<path class="st3" d="M902.55,563.2l0.05-0.16c-0.61-4.33-1.04-7.33-1.22-8.62C901.53,555.53,901.88,558.17,902.55,563.2z"/>
				<path class="st3" d="M903.34,568.04c-0.05-0.37-0.1-0.64-0.15-1C903.04,567.46,903.01,567.71,903.34,568.04z"/>
				<path class="st3" d="M908.07,611.23c-1-2.85-2.33-7.3-3.36-9.49c-1.02-2.2-1.75-2.14-1.37,3.98
					C905.36,609.68,905.01,602.66,908.07,611.23z"/>
				<path class="st3" d="M901.46,573.56l1.37,10.81c0.49-0.33,0.96-2.43,2,0.38C903.74,581.01,902.61,577.29,901.46,573.56z"/>
				<polygon class="st3" points="899.86,568.47 901.46,573.56 900.96,569.55 				"/>
				<path class="st3" d="M896.24,515.98c-1.91-4.38-2.83-9.43-3.93-15.11c0.4,6.27,1.14,12.68,2.13,18.7
					C895.43,520.23,897.34,522.55,896.24,515.98z"/>
				<path class="st3" d="M899.04,538.99c-0.11-0.31-0.2-0.71-0.3-1C898.62,538.67,898.64,539.19,899.04,538.99z"/>
				<path class="st3" d="M883.18,444.5c-0.14,0.36-0.33,0.68-0.48,1.04c0.21,0.03,0.42,0.03,0.63,0.08L883.18,444.5z"/>
				<path class="st3" d="M894.1,520.71c0.24,4.73,1.35,7.33,2.56,9.79c-0.81-3.39-1.57-7.01-2.23-10.93
					C893.99,519.27,893.72,519.26,894.1,520.71z"/>
				<path class="st3" d="M892.44,481.5c-0.29,2.55-0.41,5.4-0.45,8.37C892.57,487.31,893.37,482.18,892.44,481.5z"/>
				<path class="st3" d="M899.19,536.28c0.07,0.22,0.15,0.42,0.22,0.67C899.71,535.31,899.48,535.56,899.19,536.28z"/>
				<path class="st3" d="M899.19,536.28c-0.73-2.3-1.65-4.03-2.52-5.78c0.66,2.76,1.35,5.31,2.07,7.49
					C898.82,537.38,899.01,536.74,899.19,536.28z"/>
				<path class="st3" d="M857.06,432.58c1.78,0.03,4.1,2.87,5.79,7.1c1.69,4.23,2.75,9.85,2.2,15.39c2.32,4.82,5.61,5.02,8.88,2.72
					c3.27-2.3,6.57-7.1,8.78-12.24c-1.47-0.01-2.7,0.27-6.56-9.86c-0.57,2.05-0.52,8.13-0.88,12.66c-0.36,4.53-1.1,7.51-3.41,3.39
					c-4.46-13.56-1.17-11.66-0.72-18.83c-1.51,3.34-3.87-0.77-6.65-5.13c-2.77-4.37-5.96-9-8.79-6.79l4.91,11.67
					C859.7,433.08,857.17,429.01,857.06,432.58z"/>
				<path class="st3" d="M885.75,465.79l1.09,4.28c-0.3-5.09,0.34-8.91,1.76-16.02c-2.66-6.93-4.11-8.17-5.25-8.44l3.1,21.56
					L885.75,465.79z"/>
				<path class="st3" d="M890.05,489.65c-3.57-2.74-6.84-12.87-9.05-5.73c2.63,12.68,4.25,8.35,6.88,15.7
					c-2.17-10.22-1.5-8.83-0.38-6.8c1.11,2.03,2.6,4.72,2.23-2.92c1.19,3.94,1.91,7.57,2.59,10.99c-0.24-3.8-0.34-7.49-0.32-11
					c-0.05,0.21-0.08,0.35-0.11,0.52l0.02,0.1c-0.02,0-0.03-0.02-0.04-0.01c-0.24,0.98-0.42,1.32-0.37,0.27
					c-0.05-0.06-0.1-0.31-0.13-0.42c-0.44-0.05-0.87-0.35-1.29-0.68c-0.34-6.12,0.64-1.12,1.29,0.68c0.17,0.03,0.33,0.17,0.5,0.15
					c0.01-0.02,0.02-0.05,0.02-0.08c-1.64-6.78-3.32-13.56-5.05-20.32C887.1,474.55,888.11,480,890.05,489.65z"/>
				<path class="st3" d="M897.05,595.67c0.03-0.67,0.18-0.67,0.31-0.75C896.83,593.65,896.56,593.18,897.05,595.67z"/>
				<path class="st3" d="M896.44,586.99c0.6,1.43,1.65,2.49,2.44,7.38c0.29,4.33-0.93,0.18-1.53,0.55c1.16,2.8,3.49,9.92,2.55,0.55
					l-0.56-1.39c-0.51-4.2-0.65-9.1-0.55-12.79c0.1-3.68,0.42-6.15,0.7-5.46C898.03,578.67,897.09,581.1,896.44,586.99z"/>
				<path class="st3" d="M891.35,538.12c-1.49-5.62-3.01-11.24-4.56-16.84c-0.22,3.08-0.42,6.15-0.59,9.22l1.28-0.74
					C888.89,539.59,890.11,537.13,891.35,538.12z"/>
				<path class="st3" d="M884.61,442.14l4.06,1.47c-2.23-2.94-4.54-5.87-6.87-8.79L884.61,442.14z"/>
				<polygon class="st3" points="880.47,419.86 884.01,419.93 880.99,414.48 				"/>
				<path class="st3" d="M107.86,467.36l1.44,4.93C108.69,469.95,108.23,468.45,107.86,467.36z"/>
				<path class="st3" d="M100.31,431.06l-0.86-0.74C100.17,431.92,100.59,432.55,100.31,431.06z"/>
				<path class="st3" d="M551.83,112.43c-8.15-2.3-17.61-6.5-15.68-1.92l3.26,4.14C544.3,112.61,548.3,112.2,551.83,112.43z"/>
				<path class="st3" d="M185.95,222.37c0.76,0.16,1.56,0.34,2.35,0.51c1.53-1.48,2.97-2.88,4.24-4.17
					C190.56,219.84,188.31,221.08,185.95,222.37z"/>
				<path class="st3" d="M183.7,236.59l-10.11-0.17C175.91,236.69,179.17,236.77,183.7,236.59z"/>
				<path class="st3" d="M155.98,664.12l3.47,5.35C156.99,660.44,157.11,664.63,155.98,664.12z"/>
				<path class="st3" d="M835.23,192.28c0.6-6.73,0.35-11.92-0.33-16.38C833.67,184.12,830.77,191.16,835.23,192.28z"/>
				<path class="st3" d="M89.5,456.48c0.96,3,1.55,4.24,1.85,4.08C90.39,457.46,89.71,455.75,89.5,456.48z"/>
				<path class="st3" d="M831.07,157.71c-0.27,1.22-0.28,2.36-0.46,3.59c1.79,4.42,3.42,8.91,4.29,14.61
					C835.81,169.83,835.79,163.12,831.07,157.71z"/>
				<path class="st3" d="M630.2,879.47c0.55,0.01,1.2-0.05,1.7-0.02C632,879.16,631.26,879.26,630.2,879.47z"/>
				<path class="st3" d="M842.23,847.39c-2.05,0.49-5.39,1.29-8.54,2.05C835.23,849.12,837.81,848.5,842.23,847.39z"/>
				<path class="st3" d="M866.53,329.61C867.69,334.27,867.16,330.25,866.53,329.61L866.53,329.61z"/>
				<path class="st3" d="M853.87,356.33c-0.68-0.9-1.45-1.52-2.46-1.42C852.51,355.07,853.3,355.58,853.87,356.33z"/>
				<path class="st3" d="M787.39,118.99c-0.07-0.12-0.12-0.22-0.2-0.36C787.1,120.36,787.14,120.05,787.39,118.99z"/>
				<path class="st3" d="M865.85,337.16c0.2-1.89,0.28-4.04,0.19-6.33C865.88,331.88,865.79,333.81,865.85,337.16z"/>
				<path class="st3" d="M867.74,335.75c0.1,1.67,0.22,2.98,0.33,4.23C868.89,340.41,869.26,339.78,867.74,335.75z"/>
				<path class="st3" d="M865.06,323.08c0.58,2.69,0.84,5.25,0.97,7.75c0.13-0.99,0.3-1.44,0.5-1.22
					C866.21,328.23,865.75,326.3,865.06,323.08z"/>
				<path class="st3" d="M248.26,962.35c0.23,0.15,0.49,0.18,0.75,0.34c1.7-1.03,2.1-1.4,1.83-1.4
					C250.57,961.29,249.59,961.72,248.26,962.35z"/>
				<path class="st3" d="M440.18,186.65c0.21-0.09,0.3-0.23,0.49-0.31c-0.23-0.01-0.52-0.01-0.73-0.02L440.18,186.65z"/>
				<path class="st3" d="M423.99,193.34c6.01-6.83,10.25-7.05,15.95-7.03l-8.35-11.35L423.99,193.34z"/>
				<path class="st3" d="M127.5,553.95l-1.43-12.09c5.35,13.8,7.18,24.23,6.33,12.77c-2.48-0.33-5.23-11.78-7.98-23.23
					c-2.69-11.46-5.38-22.92-7.73-23.26l-0.79-8.01c0.45,2.24,0.78,2.55,1.23,4.77c-1.22-15.64-5.66-10.57-9.27-30.27
					c-1.15-6.89-1.5-11.8,0.02-7.26l-4.35-14.96c-0.86-4.44,0.16-3.54,1.01,0.89l-5.25-23.12l0.17,0.14
					c-1.42-3.15-4.13-10.4-5.4-13.95c-0.55-6.05,1.13,2.84,1.4,1.21l-3.86-12.59c0.19-5.52,3.6,4.87,5.26,13.79
					c1.14-6.53,0.32-9.14-1.13-13.42c-1.42-4.29-3.57-10.24-4.64-23.55l3.04,12.02c0.63-4.23,0.28-8.67-0.37-13.83
					c-0.65-5.15-1.55-11.02-1.85-18.12c-0.2,1.75-0.13,8.91-0.4,13.91c-0.28,5-0.97,7.83-3.02,0.99c-0.41-4.02-1.21-9.26-3.8-16.56
					c1.9-0.49,0.01-7.76-1.89-16.96l2.78,0.04c-2.63-9.82-3.85-8.72-6.22-14.32c-1.88-11.17-0.06-13.98,1.37-17.02
					c-1.33-8.98-1.72-5.7-2.27-2.8c-0.56,2.9-1.27,5.41-3.53-5.07c-0.41-3.77-0.91-7.23-1.52-10.57l-0.11-0.63
					c-0.04-0.21-0.08-0.43-0.09-0.56l-0.11-0.93c-0.08-0.61-0.18-1.22-0.29-1.83c-0.16-1.22-0.17-2.45-0.35-3.69
					c0-0.62,0.01-1.25-0.01-1.88c0.01-0.63-0.1-1.28-0.01-1.93c0.13-1.29,0.06-2.66,0.34-4.04c0.11-0.69,0.16-1.42,0.3-2.15
					c0.17-0.72,0.34-1.46,0.51-2.22c0.13-0.78,0.42-1.52,0.67-2.3c0.27-0.77,0.46-1.62,0.86-2.4c0.68-0.79,1.18-1.34,1.57-1.7
					c0.39-0.36,0.73-0.5,0.92-0.54c0.4-0.07,0.42,0.34,0.33,0.85c-0.11,1.08-0.49,2.6,0.65,1.73c0.4-2.31,1.14-4.59,2.08-6.93
					c1.29-1.16,1.53-0.11,1.63,0.35c0.89-1.11,1.2-1.89,1.28-2.5c0.1-0.59-0.04-1.02-0.1-1.53c-0.06-0.51-0.02-1.08,0.51-1.95
					c0.26-0.44,0.63-0.97,1.26-1.5c0.62-0.53,1.37-1.24,2.43-1.92c0.06-0.59,0.46-1.1,1.12-1.56c0.33-0.23,0.73-0.44,1.18-0.65
					c0.45-0.2,1-0.3,1.57-0.43c1.15-0.25,2.45-0.5,3.93-0.46c0.72-0.01,1.47-0.02,2.24-0.03c0.95,0,1.93-0.01,2.93-0.01
					c8.03-0.06,17.57-0.26,24.54-4.23c3.97,0.45-1.24,2.82,0.24,4.17c9.99-3.55,14.27-5.03,18.07-6.56
					c3.79-1.54,7.1-3.13,15.03-7.25c5.02,0.01,10.05,0.04,15.09,0.11c-5.69-0.68-5.35-2.64-2.22-5.23
					c3.13-2.58,9.05-5.79,14.58-8.82c-4.12-0.89-7.64-1.64-9.94-1.85c6.09-2.26,12.17-4.56,18.25-6.88
					c2.45,0.26,0.92,2.38-1.72,5.07c1.2-0.68,2.33-1.35,3.2-1.93c7.13,0.27,4.27,3.9,0.02,7.6c-2.51-0.46-5.02-0.98-7.45-1.5
					c-4.02,3.9-7.7,7.91-6.13,10.44c1.11-0.78,3.38-1.72,5.93-2.5c-1.05,1.02-1.68,1.87-1.01,2.23c0.75,0.37,2.5-1.05,5.33-2.89
					l5.49,4.5l0.58-2.33c8.51-0.48,17.04-0.91,25.58-1.28c16.52-8.98,29.97-20.99,57.4-29.77c-5.95,6.07,0.15,7.75,0.96,13.25
					c-4.47-2.09-9.77-0.35-15.82,2.08c-6.05,2.42-12.86,5.5-20.28,6.38c7.74-0.93,6.61,1.88,4.86,3.08
					c8.32-3.3,16.63-6.66,24.91-10.12c0.38,4.49,6.25,2.2,13.46,2.71c-7.07-7.75,18.08-9.78,28.02-14.76
					c1.33,2.93-0.51,6.58-13.58,8.43c7.87,1.96,11.89-1.58,15.83-5.33c3.94-3.73,7.81-7.69,15.44-6.18
					c-3.13,0.73-4.93,0.61-5.82,2.45c6.74-4.29,25.18-5.87,21.57-2.22l-3.13,0.71c21.15-3.17,63.61-13.13,64.86-22.24
					c0.45,1.05-0.5,10.7-1.39,12.64c10.35-11.96,20.65-24.16,30.9-36.6c-0.82,4.06,2.88,9.76,4.74,15.48
					c1.86,5.71,1.89,11.42-6.32,15.28c5.2,0.01,11.64-0.01,21.54-4.8c-3.63-0.37-10.82-8.95-6.34-10.62
					c14.54,5.58,9.8,2.53,27.06,6.39c-5.44-0.55-2.4-13.55,5.7-14.92c-0.86,2.04,3.26,11.6,0.6,13.45
					c5.81-5.27,11.61-10.59,17.4-15.96c-4.52,3.2,1.33,10.18,6.55,12.62c-2.59-1.9,17.35-3.36,22.42-5.64l-9.09-1.02
					c23-2.85,18.55-21.66,41.03-25.96c-2.14,3.14-3.25,16.99,8.48,16.15c1.91-3.69,6.02-12.49,11.96-21.62
					c5.94-9.12,13.71-18.59,23.03-23.33l4.6,2.82l14.21-7.66c-3.63,5.97-10.94,15.56-18.95,24.95c-8.01,9.41-16.73,18.59-23.12,24
					c9.09,1.11,3.3,3.8,15.89,0.85c5.23,2.51-5.76,6.6-9.44,7.56l29.98-3.81c-2.97-7.25,20.87-12.24,18.34-18.35
					c-10.08,4.9-20.17,9.73-30.26,14.55c-1.47-3.6,1.98-9.88,8.43-15.71c6.45-5.82,15.91-11.18,26.47-12.79
					c5.97,1.89-0.97,14.41,0.02,16.85c2.13-3.18,18.69-9.24,21.02-7.78l-7.94,5.97c12.26,0.44,16.7-14.22,32.27-9.89
					c4.92-0.55,16.57,6.87,16.39,2.1c-9.8-7.14-17.35-34.05-13.59-41.85c1.81,0.22,27.1,2.82,33.56,6
					c9.46,5.21-8.23,19.17-0.17,23.65c-0.18-2.18,3.62-5.76,5.26-7c5.45,0.7-0.64,7.04,10.12,3.66c0.01-0.52,0.1-0.99,0.26-1.41
					c0.09-0.42,0.18-0.76,0.35-1.06c0.32-0.6,0.82-1.03,1.4-1.35c0.29-0.16,0.59-0.3,0.91-0.4c0.32-0.06,0.64-0.1,0.97-0.13
					c0.64-0.05,1.26-0.04,1.78-0.03c1.04,0.16,1.68,0.33,1.4-0.05c-0.14-0.19-0.52-0.5-1.24-1.04c-0.73-0.44-1.8-1.06-3.44-1.88
					c1.86-0.69,3.4-1.07,4.7-0.9c0.65,0.05,1.24,0.14,1.81,0.26c0.56,0.2,1.09,0.43,1.62,0.66c0.53,0.25,1.07,0.44,1.61,0.76
					c0.55,0.32,1.13,0.63,1.77,0.93c0.66,0.25,1.33,0.66,2.13,1c0.4,0.17,0.82,0.33,1.28,0.49c0.43,0.22,0.9,0.43,1.4,0.63
					c-0.09-1.47,0.67-3.06,2.24-4.49c0.78-0.7,1.79-1.42,2.94-1.96c1.14-0.52,2.47-0.96,3.96-1.29c2.91-0.57,6.39-0.53,9.71,0.37
					c3.34,0.86,6.5,2.56,8.8,4.67c-1.03,0.34-1.65,1.46-2.08,2.66c-0.43,1.21-0.77,2.56-0.95,3.38c0.35,0.6,0.7,1.18,1.04,1.76
					c0.34,0.58,0.57,1.21,0.85,1.8c0.5,1.21,1.11,2.33,1.42,3.53c0.35,1.19,0.74,2.32,1.01,3.46c0.2,1.15,0.4,2.28,0.6,3.39
					c0.2,1.08,0.28,2.22,0.42,3.34c0.12,1.12,0.24,2.22,0.36,3.31c0.22,2.18,0.44,4.31,0.65,6.43c0.85,8.48,1.75,16.76,4,27.02
					c-1.46,2.3-1.49,12.69-5.76,9.22c2.03,2.64,5.26,4.78,6.85,11.06c-3.88,13.7-4.21-13.87-10.1-2.77
					c4.65-0.19,9.88,14.98,14.67,23.37c6.21-4.28-3.33-21.1-8.17-29.5c9.54-2.15,23.01,11.35,31.9,31.88
					c5.96,16.56-4.45,8.73-2.49,11.4c5.34,32.39,21.88,23.77,20.81,51.88c-3.52,11.84-11.28,2.99-14.94,6.25
					c-5.23-13.4-1-22.13-3.26-31.5l-0.23,12.2c-2.9-3.99-6.42-12.93-5.84-18.36c-1.67,5,1.09,18.57,4.33,34.12
					c3.25,15.54,6.96,33.06,7.47,45.9c2.84,3.97,6.4,11.13,7.8,7.06l-2.47-7.65c2.9-8.17,9.26,13.38,9.21,3.02
					c5.33,9.82,12.38,20.58,12.88,35.95l-5.33,4.09c1.64-0.69,1.55-10.46-1.12-14.22c1.96,2.79,1.08,8.92,0.93,14.96
					c-0.17,6.05,0.38,12.01,4.82,14.57c0.62-3.75,1.26-7.51,1.93-11.28c2.5,4.97,5.89,10.39,8.66,16.28
					c2.77,5.89,4.95,12.25,5.25,19.04c4.36-7.2-1.2-2.9,3.6-13.7c-6.59,9.91-5.5-33.87-11.89-18.89c3-5.66,3.1-10.01,2.97-14.7
					c-0.12-4.68-0.44-9.71,1.9-16.76c-1.94,0.83-3.03,5.3-4.05-5.99c-0.68-0.37-1.65-1.38-2.23-2.03c-0.01-0.35,0-0.48,0.01-0.78
					c-0.04,0.24-0.1,0.42-0.13,0.66c-0.39-0.41-0.47-0.44-0.04,0.24c-0.41,2.83-1.07,5.2-2.02,6.31c-5.64-4.47-9-22.04-12.68-27.42
					c-0.32-6.76,2.95,2.21,4.46-1.86l-5.51-8.03c4.46-1.9,4.39-19.12,10.14-4.3l-2.48-13.94c1.04-8.76-0.03-20.25-3.48-26.73
					c-0.25-6.78-8.73-15.33-3.76-10.48l-7.46-21.07l1.19-0.47c-1.88-10.79-6.23-21.37-9.63-32.55c-3.38-11.19-5.91-22.97-3.85-36.24
					c-2.79-6.93-5.97-14.03-7.09-26.4l3.95-3.34c-0.44-1.11-0.79-2.4-1.08-3.8c-0.08-0.4-0.16-0.81-0.24-1.23
					c-0.1-0.63-0.23-1.26-0.38-1.9c-0.29-1.28-0.59-2.59-0.89-3.93c-1.21-5.34-3.09-10.96-5.46-16.08
					c-0.54-1.31-1.24-2.51-1.89-3.71c-0.66-1.19-1.34-2.35-2.01-3.46c-1.38-2.2-2.92-4.1-4.33-5.79c-0.7-0.85-1.44-1.58-2.16-2.22
					c-0.72-0.65-1.42-1.22-2.08-1.7c-1.34-0.95-2.52-1.59-3.58-1.72c-0.3-1.3-0.81-2.66-1.53-4.08c-0.73-1.4-1.61-2.92-2.81-4.31
					c-1.17-1.42-2.54-2.87-4.08-4.31c-1.58-1.38-3.37-2.71-5.3-4.04c-7.77-5.18-18.52-8.97-29.9-9.9c-5.68-0.5-11.5-0.29-17.14,0.46
					c-1.42,0.14-2.81,0.43-4.19,0.7c-1.38,0.28-2.75,0.57-4.11,0.88c-0.68,0.16-1.35,0.31-2.02,0.46l-1.18,0.35
					c-0.72,0.21-1.43,0.43-2.13,0.64c-5.62,1.65-10.8,3.03-14.98,3.41l0.68,5.99c-11.24,2.19-21.6,6.25-34.94,11.76l1.99,4.94
					c-5.51,3.47-13.4,4.28-22.25,4.86c-8.85,0.59-18.67,0.94-28.06,3.38c0.86-2.23,5.76-2.83,9.41-2.44
					c-12.56-3.15-23.98,1.77-35.08,6.91c-11.1,5.15-21.86,10.6-32.98,8.93c-4.7,2.99-8.53,3.24-12.37,2.86
					c0.47-0.13,0.87-0.32,1.21-0.56c-0.53,0.07-1.31,0.23-2.11,0.43c-2.44-0.31-4.97-0.74-7.65-0.92c2.4,0.68,4.65,1.17,6.53,1.2
					c-3.91,1.03-9.74,3.03-15.31,5.62l-3.64-4.6c-0.46,0.18-0.84,0.26-1.32,0.46c-6.15-0.55-4.07,3.54-0.15,6.72
					c-2.76,1.53-5.23,3.19-7.05,4.91c-6.49-7.21-14.72,6.35-23.02-0.94c-3,5.2-28.66,10.13-29.84,19.64
					c-0.45-1.11-2.3-1.25,0.84-2.06c-6.74,0.49-13.48,1.02-18.78,4.81l-4.15-5.61l-12.39,11.64c-9.49-1.8-13.54-3.1-6.01-9.86
					c-9.55,6.09-13.61,7.73-17.28,9.29c-3.67,1.55-6.95,3.02-14.99,8.58l0-4.09c-6.27,1.62-15.2,9.11-19.71,6.79
					c-7.86-2.03-25.35,1.78-45.58,6.35c-20.22,4.6-43.19,9.89-61.91,11.26c4.63,4.26,0.18,4.12-5.38,3.98
					c-5.56-0.14-12.23-0.24-12.09,3.78c-2.62-1.84-7.93-1.88-2.55-5.38c-8.94,3.48-16.05,4.3-22.33,5.49
					c-6.28,1.18-11.73,2.72-17.41,7.36c-2.59-1.65,3.22-4.22,1.06-5.05c-1.37,0.87-5.41,3.42-7.61,2.62
					c-2.15-0.8,2.29-2.52,4.98-4.24c-18.64,5.41-19.11,12.35-19.15,18.72c-10.18-0.58-14.82,1.11-20.88,6.54
					c-3.75-1.12-9.71-1.68,1.83-5.26c-3.32,0.67-13.51,2.48-22.82,4.74c-9.31,2.26-17.76,4.91-17.63,7.1
					c-2.3-0.57-9.26,1.95-10.89,2.84c-14.82,3.35-16.19,3.33-30.6,7.24l4.16-0.36c-1.18,1.5-2.51,2.49-4.02,3.18
					c-0.77,0.36-1.52,0.59-2.45,0.87c-0.93,0.29-1.92,0.54-2.97,0.78c-0.53,0.12-1.07,0.24-1.62,0.36c-0.54,0.17-1.1,0.34-1.67,0.51
					c-1.14,0.37-2.38,0.68-3.62,1.2c-1.23,0.54-2.53,1.13-3.88,1.81c-1.3,0.77-2.62,1.67-3.99,2.65l0.07-0.58
					c-1.71,0.96-3.14,2.01-4.49,2.91c-1.28,0.97-2.36,1.94-3.35,2.78c-0.25,0.21-0.48,0.42-0.72,0.63
					c-0.21,0.22-0.42,0.44-0.62,0.65c-0.4,0.43-0.77,0.83-1.12,1.21c-0.69,0.77-1.32,1.43-1.81,2.09c-0.95,1.33-1.63,2.37-2.17,3.26
					c-0.57,0.87-0.84,1.7-1.2,2.46c-0.34,0.77-0.68,1.54-1.13,2.45c-0.41,0.93-0.86,2.05-1.55,3.48c-0.17,0.36-0.35,0.74-0.55,1.14
					c-0.16,0.42-0.34,0.86-0.53,1.32c-0.38,0.94-0.8,1.99-1.28,3.17c-0.41,1.21-0.82,2.57-1.31,4.1c-0.27,0.76-0.43,1.59-0.62,2.46
					c-0.19,0.88-0.39,1.79-0.6,2.76c0.88-0.49,1.76-0.95,2.65-1.39c0.62,0.44,0.98,1.15,1.15,2.1c0.2,0.95,0.32,2.14,0.27,3.54
					c-0.11,1.4-0.05,3.01-0.12,4.8c-0.02,0.45-0.03,0.91-0.05,1.38c-0.01,0.47,0.04,0.95,0.05,1.43c0.04,0.98,0.09,2,0.13,3.05
					c0.57,7.85,1.35,17.16,4.07,24.67l-0.07-5.82c1.78,4.02,1.55,10.24,1.17,16.5c-0.39,6.26-0.9,12.56-0.13,16.82
					c0.08,1.91-1.32-2.76-2.25-5.25c3.01,22.55,3.35,2.27,7.94,18.55c-0.61,3.33-4.43-3.13-1.93,7.96
					c0.15,2.87,3.25,10.63,6.32,19.65c3.11,9.02,6.18,19.3,6.83,27.11c0.13-3.53,0.31-7.04,2.78,0.44
					c2.99,11.66,3.99,32.42,9.16,42.4c0.1,1.54,0,2.16-0.2,2.27c2.76,8.81,7.74,28.89,10.38,33.98
					c-3.48,9.47,14.92,55.24,9.85,56.15l6.14,27.61l-0.68-0.61c3.33,17.78,5.87,23.76,8.51,29.68c0.48,4.17-0.67,1.3-1.03,1.03
					c4.19,26.12,4.71,28.7,12.3,49.7l-1.63,2.72c1.2,2.81,2.25,12.35,3.8,24.34c0.77,5.99,1.68,12.59,2.84,19.25
					s2.61,13.38,4.55,19.58c-0.34-0.18-0.94-0.6-1.67-2.55c4.2,14,5.54,31.56,6.99,46.75c1.48,15.17,3.22,27.93,10.19,31.85
					c2.17,6.09,4.39,12.16,6.66,18.22c-1.92-12.32-0.44-11.69,1.59-9.32c2.02,2.38,4.63,6.5,4.57,1.27
					c1.41,4.7,1.83,11.08,1.43,14.86c-0.39,3.77-1.57,4.93-3.12-0.89l0.26-1.98c-3.75-1.43-2.84,6.28-1.59,14.4
					c1.25,8.12,2.86,16.64,0.35,16.85c4.77,24.02,8.43,47.97,11.84,71.57c0.86,5.9,1.71,11.78,2.56,17.63l0.16,1.1l0.31,1.5
					l0.66,3.02c0.39,2.03,1.13,3.97,1.77,5.94c0.6,1.99,1.52,3.86,2.37,5.76c0.81,1.93,1.9,3.7,2.94,5.51
					c8.53,14.37,23.08,25.01,39.43,28.77c-1-1.45-1.93-2.9-2.79-4.33c-0.85-1.45-1.61-3-2.31-4.48c6.49,2.43,13.47,3.72,20.48,3.74
					c2.76,0.69,4.84,1.93,4.2,3.13c-0.61,1.11-4.15,2.68-12.32,1.74c1.01,0.68,2.24,1.05,3.59,1.29c1.35,0.23,2.83,0.36,4.34,0.28
					c3.02-0.3,6.22-1.01,8.93-2.32c0.68-0.31,1.34-0.62,1.97-0.94c0.31-0.16,0.62-0.33,0.92-0.48l0.44-0.24l0.3-0.23
					c0.78-0.62,1.47-1.22,2.05-1.78c1.16-1.12,1.86-2.04,1.85-2.44c22.49-1.8-6.74,9.98,0,8.71l9-2.42l-2.24-0.39
					c6.75-4.43,6.72-7.64,20.21-10.19c8.79-0.43,5.31,3.41,8.71,2.95c0.09,0.52,1.27,0.5,5.17-0.91l19.81-3.75l-9.1-3.84
					c8.11-4.7,18.57-3.82,8.09-8.13c7.74,3.41,26.28,0.18,43.96-3.87c17.68-4.03,34.53-8.83,38.92-8.36
					c11.32-6.77,23.37-9.48,38.34-12.62c-3.93-0.16-7.42-5.4,5.6-7.65c-1.06,6.37,5.09,6.23,13.02,5.15
					c7.93-1.07,17.65-3.04,23.68-0.47c-10.38-2.8,36.06-10.69,20.02-13.98c10.88-1.81,1.5,3.69,10.12,3.99
					c12.26-5.27,26.4-8.2,41.29-11.32c14.9-3.08,30.55-6.35,46.07-11.17c0.28-1.07-5.3-1.19,1.11-4.36
					c5.88,0.17,11.72,0.21,17.55,0.14c3.04-1.08,4.18-2.72,6.07-4.07c1.88-1.37,4.52-2.41,10.48-2.51c-1.74-0.24-4.36-0.67-0.26-2
					c15.59-2.99,31.15-6.87,46.78-10.95c15.62-4.1,31.34-8.23,47.09-12.37c31.53-8.14,63.35-15.56,94.93-21.97
					c-8.59,1.57-2.94,0.17,3.54-1.37c-4.24,0.89-0.03-0.58-0.92-0.69l26.47-5.25c4.63-1.85,28.21-6.43,30.81-7.7l-8.32,1.97
					c10.92-3.26-15.92,1.65-14.54,0.2c-6.11,1.83-14.39,3.26-23.66,4.89c-9.27,1.63-19.55,3.42-29.59,6.38
					c-4.58,0.65,3.75-1.24,1.27-1.05c-5.06,1.63-11.28,3.11-22.95,5.16l1.28-0.43c-32.59,6.71-46.74,8.78-83.76,14.48l3.03,0.9
					c-7.94,1.27-9.71,1.11-13.5,1.4c-8.57,3.94,22.24-3.91,14.49-0.07c-5.54-0.37-19.48,2.14-33.02,4.52
					c-13.54,2.35-26.66,4.6-30.74,2.83c-6.11,0.99-5.08,1.44-4.05,1.89c1.03,0.45,2.05,0.88-4.04,1.94l-3.53-0.78l-2.69,2.29
					c-8.04,1.15-12.48,0.01-13.05-1.19c1.98-0.17,5.45-1.23,7.51-1.66c-5.38-0.01-12.69,1.24-19.1,2.56
					c-6.41,1.31-11.92,2.69-13.78,2.66l11.96-0.89c-16.51,3.44-35.03,6.4-53.36,9.54c-18.33,3.17-36.45,6.58-51.97,11.84l2.81,1.26
					c-11.88,3.89-16.86,4.42-22.22,4.67c-5.35,0.29-11.06,0.34-24.3,3.73l0.88-0.64c-4.95,2.93-11.9,5.32-19.28,6.58
					c6.26-3.62-13.73-1.97-5.41-6.26c-12.82,4.48-15.91,5.98-17.79,7.62c-1.88,1.67-2.54,3.5-10.42,9.14l-4.78-2.58
					c-5.26,4.35-5.39,6.08-18.53,9.85c10.28-5.31-9.69-3.51,1.7-10.04c-7.43-0.45-13.64,0.32-19.02,1.64
					c-5.37,1.33-9.91,3.19-13.99,4.84c-8.17,3.3-14.53,5.84-22.21,1.49c-10.66,12.69,25.43,0.26,18.7,3.94
					c6.73,1.91-8.97,9.68-17.97,10.62c-8.98,1.76-18-9.42-40.41-4.21c2.24-0.45,2.23-1.24,4.47-1.69c-8.96-0.66-15.7,7.11-26.9,5.35
					c-4.46,7.27-13.43,2.75-13.43,10.68l20.19-6.43c-5.61,2.31-10.66,6.31-16.83,9.73c-0.77,0.43-1.56,0.84-2.37,1.25
					c-0.38,0.19-0.86,0.43-1.18,0.57c-0.35,0.15-0.7,0.3-1.05,0.46c-0.72,0.3-1.46,0.59-2.24,0.86c-0.78,0.2-1.6,0.33-2.44,0.47
					c-0.42,0.06-0.85,0.11-1.28,0.17c-0.43,0.04-0.87,0-1.32-0.01c-0.89-0.04-1.8-0.08-2.73-0.22c-0.92-0.21-1.85-0.46-2.79-0.75
					c-0.23-0.07-0.47-0.14-0.71-0.23l-0.69-0.32c-0.46-0.22-0.92-0.45-1.38-0.7c0.81-0.63,2.43-1.05,4.2-1.77
					c1.75-0.54,3.61-1.39,5.03-1.89c-1.03-0.61-1.99-0.82-2.98-0.82c-0.97-0.14-1.95-0.07-2.97,0.01c-1-0.02-2.02-0.09-3.02-0.3
					c-0.98-0.29-1.91-0.86-2.71-1.69c0.49-0.84,1.12-1.43,1.83-1.81c0.36-0.19,0.73-0.33,1.13-0.42c0.39-0.08,0.81-0.13,1.26-0.22
					c1.77-0.23,3.87,0.06,6.21-0.08c0.29,0,0.58-0.01,0.88-0.01l0.44,0l0.45-0.07c0.6-0.09,1.2-0.16,1.81-0.23
					c0.3-0.01,0.6-0.1,0.9-0.19l0.89-0.25l0.88-0.25l0.49-0.15l0.73-0.24c3.89-1.29,7.53-2.88,10.33-5.05
					c-1.68-0.45-3.92,0.01-6.27,0.8c-1.17,0.4-2.37,0.88-3.54,1.37c-0.58,0.25-1.16,0.49-1.72,0.73c-0.17,0.07-0.24,0.11-0.31,0.14
					l-0.22,0.11c-0.15,0.08-0.29,0.15-0.43,0.22c-0.57,0.29-1.1,0.56-1.55,0.71c-0.46,0.08-0.84,0.06-1.09-0.12
					c-0.52-0.35-0.46-1.38,0.12-3.52c-0.42,1.34-0.99,2.43-1.67,3.17c-0.67,0.67-1.44,1.1-2.25,1.37c-0.8,0.16-1.64,0.1-2.5,0
					c-0.84-0.22-1.68-0.55-2.53-0.88c-0.41-0.23-0.82-0.46-1.24-0.67c-0.42-0.22-0.86-0.37-1.27-0.65
					c-0.82-0.52-1.75-0.83-2.65-1.29c-0.46-0.21-0.97-0.35-1.5-0.5c-0.49-0.2-1.03-0.35-1.63-0.46c-0.3-0.06-0.61-0.1-0.93-0.14
					c-0.3-0.07-0.61-0.13-0.95-0.18c-0.66-0.1-1.41-0.15-2.23-0.18c1.2-0.95,2.38-1.93,3.53-2.92c-0.2-0.03-0.42-0.06-0.66-0.1
					c-0.23-0.06-0.49-0.12-0.76-0.19c-0.56-0.14-1.2-0.3-1.88-0.51c-1.19-0.56-2.62-1.3-3.26-2.49c0.64,0.08,1.25,0.14,1.86,0.18
					c0.6,0.05,1.28,0.01,1.88,0c1.25-0.05,2.36-0.11,3.59-0.39c-1.98-0.15-3.26-1.23-4-2.53c-0.23-0.3-0.33-0.68-0.43-1.05
					c-0.1-0.37-0.19-0.74-0.27-1.1c-0.11-0.35-0.08-0.77-0.09-1.16l-0.01-1.15c-0.04-0.36,0.07-0.77,0.11-1.15
					c0.05-0.38,0.1-0.75,0.13-1.11l0.02-0.27l0.01-0.14l-0.01-0.28l-0.07-1.13c-0.05-0.76-0.12-1.51-0.21-2.25
					c-0.35-2.99-1.02-5.91-2.41-8.7c1.61,6.13,2.17,9.61,2.12,11.56c-0.01,0.24-0.02,0.46-0.05,0.66c-0.02,0.1-0.03,0.19-0.05,0.28
					c-0.02,0.08-0.05,0.1-0.07,0.15c-0.11,0.16-0.24,0.29-0.39,0.4c-0.31,0.21-0.7,0.32-1.14,0.37c-0.87,0.11-1.94-0.01-2.86,0.23
					c-0.92,0.25-1.66,0.86-1.95,2.71c-0.7-1.14-1.32-1.83-1.91-3.65c-0.57-1.54-1.03-2.95-1.39-4.25c-0.72-2.6-1.05-4.76-1.13-6.64
					c-0.15-3.75,0.76-6.37,1.72-9.12c1.95-5.51,4.1-11.54-1.39-28.24c1.82,4.45,2.13,17.73-1.6,10.98
					c-0.82-6.64-1.55-15.48-0.57-19.88c-3.43-11.11-4.17-10.03-4.69-7.3c-0.51,2.73-0.84,7.12-3.26,2.6
					c1.34-4.34,0.12-6.98-1.88-9.74c-2.01-2.76-4.81-5.64-6.76-10.4l3.7-0.89c-4.39-26.07-9.3-5.11-12.33-28.79
					c2.41,2.9,4.86,5.79,7.35,8.67l-4.4-11.72l4.58,1.61c-6.43-12.39-6.67-16.63-9.12-29.62c-1.45,3.46-6.22-0.39-9.14-11.73
					c-0.17-8.13,4.01,3.69-0.59-12.27c2.76,3.22,6.25,6.65,5.3,14.25c1.19,0.49,2.89,3.14,4.1,3.65
					c-0.18-8.76-5.31-20.94-6.89-26.73c0.5,2.26,1.08,4.96,1.05,6.42c-3.47-7.44-6.81-14.9-10.08-22.39
					c0.07-3.89,1.62-1.16,3.21,1.53c-1.56-4.64-3.66-7.63-5.68-14.51c2.59,1.33,4.63,0.42,8.41,9.96
					c-2.89-7.18-5.69-14.38-8.41-21.59c0.51-1.68-0.7-11.88,0.81-9.17c-1.13-6.25-4.22-13.54-7.2-21.38
					c-3.03-7.83-5.99-16.21-7.46-24.5c-0.55-0.77-1.3-2.4-2.42-5.82c-1.78-7.71-3.05-15.06-4.72-22.7c-1.69-7.64-3.75-15.57-7-24.45
					l0.01-10.89c-2.06-7.06-1.97-3.4-2.25-0.9c-0.27,2.5-0.92,3.83-4.23-7.96c-4.75-16.68,0.6-6.75-0.14-12.8
					c-3.26-8.09-9.03-22.15-10.66-38.07C125.65,545.1,126.21,549.2,127.5,553.95z M88.51,377.12c1.08,3.35,3.61,9.96,3.05,12.71
					C88.73,386.36,89.08,383.12,88.51,377.12z M213.58,223.88c-2.28,1.76-6.38,1.93-11.14,1.46
					C205.61,224.37,209.3,223.74,213.58,223.88z M852.46,278.79c-0.11-0.13-0.19-0.22-0.33-0.31
					C852.61,270.36,852.35,273.26,852.46,278.79z M853.43,295.22c1.02,1.45,1.71,1.18,2.29,0.35c-1.5-0.83-2.3-4.39-2.76-8.55
					C851.84,288.45,851.35,290.71,853.43,295.22z M302.78,983.72l-3.36-0.54C306.1,980.3,304.42,981.95,302.78,983.72z"/>
				<path class="st3" d="M184.06,234.94c-1.11-0.41-1.52-1.01-1.9-1.62C180.94,234.17,181.06,234.85,184.06,234.94z"/>
				<path class="st3" d="M155.35,663.13c0.03,0.18,0.08,0.36,0.11,0.54c0.2,0.27,0.37,0.39,0.52,0.45L155.35,663.13z"/>
				<path class="st3" d="M735.64,124.01c-3.45-0.09-5.49-0.71-6.94-1.5C728.82,123.91,730.56,124.74,735.64,124.01z"/>
				<path class="st3" d="M877.3,378.15l-2.94-10.01c1.09,4.92,0.38,6.91,0.09,9.58C875.48,377.25,876.69,374.95,877.3,378.15z"/>
				<path class="st3" d="M868.82,472.56c0.78,1.39,0.75,3.14,1.52,4.51l1.58-0.78C870.47,469.98,868.09,465.86,868.82,472.56z"/>
				<path class="st3" d="M864.1,390.93c-3.6,1.64-1.02,7.76,1.07,14.76c-0.1-0.43-0.21-0.83-0.25-1.27
					C870.41,405.42,867.31,398.15,864.1,390.93z"/>
				<path class="st3" d="M865.62,407.33c0.61,2.17,1.13,4.4,1.39,6.6C869.18,414.32,866.92,411.15,865.62,407.33z"/>
				<path class="st3" d="M860.2,314.84c-0.42,3.63,5.74,0.95,4.41,3.25c3,1.32,0.36-4.01-2.3-7.39
					C859.64,307.31,857,305.85,860.2,314.84z"/>
				<polygon class="st3" points="853.03,399.43 857.06,395.86 852.48,392.69 				"/>
				<path class="st3" d="M844.3,342.39l1.08,11.7c0.79-0.36,1.59,0.99,2.34,2.68C846.38,349.7,845.73,341.79,844.3,342.39z"/>
				<path class="st3" d="M847.72,356.76c0.69,3.68,1.55,7.13,2.78,8.99C850.03,363.79,848.96,359.56,847.72,356.76z"/>
				<polygon class="st3" points="848.18,384.19 848.42,380.6 846.99,372.5 				"/>
				<path class="st3" d="M818.75,219.75l-4.31-12.07c-2.2-0.84-2.63,2.8-0.85,7.26C815.58,217.61,817.33,222.06,818.75,219.75z"/>
				<path class="st3" d="M812.03,260.62c0.37-3.6,1.54-4.1,2.91-6.39l-6.85,1.12L812.03,260.62z"/>
				<path class="st3" d="M802.21,224.81c-2.18-0.82-9.62-16.78-5.58-1.16C798.82,224.48,803.23,236.55,802.21,224.81z"/>
				<polygon class="st3" points="712.09,108.57 715.23,107.78 712.18,96.14 				"/>
				<path class="st3" d="M552.94,171.08c15.35-0.37,2-7.52,16.07-6.96c2.88-3.34-11.5-0.45-8.44-3.44
					C552.27,165.29,547.25,164.7,552.94,171.08z"/>
				<path class="st3" d="M560.57,160.68c1.33-0.73,2.72-1.58,4.18-2.62C562.31,159.28,561.22,160.06,560.57,160.68z"/>
				<polygon class="st3" points="876.97,840.08 886.48,838.18 880.29,839.17 				"/>
				<path class="st3" d="M894.95,835.21l2.38,0.2l5.54-1.89C900.75,834.03,896.61,835.01,894.95,835.21z"/>
				<path class="st3" d="M88.62,349.52l-0.77-0.59c-0.42,1.63-0.06,3.87,0.67,8.37L88.62,349.52z"/>
				<polygon class="st3" points="112.51,478.84 112.07,476.62 111.05,481.18 				"/>
				<path class="st3" d="M139.63,585.82c-0.99-4.39-2.71-9.43-3.7-13.84C138.64,581.42,137.36,587.56,139.63,585.82z"/>
			</g>
		</g>
	</g>
</g>
<text transform="matrix(0.9991 -0.0425 0.0425 0.9991 133.6349 937.7559)" class="st4 st5 st6">W</text>
<text transform="matrix(1 0 0 1 857.8021 742.4446)" class="st7 st8">Wroteit</text>
</svg>
